<svg xmlns="http://www.w3.org/2000/svg" viewBox="0 0 512 512">
  <defs>
    <linearGradient id="gold-grad" x1="0%" y1="0%" x2="100%" y2="100%">
      <stop offset="0%" stop-color="#FACC15" /> <!-- yellow-400 -->
      <stop offset="100%" stop-color="#CA8A04" /> <!-- yellow-600 -->
    </linearGradient>
  </defs>
  <!-- Rounded Gold Square Background -->
  <rect width="512" height="512" rx="100" fill="url(#gold-grad)"/>
  
  <!-- Dark Navy Building Icon -->
  <path fill="#0f172a" d="M384 416H128c-17.7 0-32-14.3-32-32V96c0-17.7 14.3-32 32-32h256c17.7 0 32 14.3 32 32v288c0 17.7-14.3 32-32 32zM176 128v64h64v-64h-64zm0 96v64h64v-64h-64zm0 96v64h64v-64h-64zm96-192v64h64v-64h-64zm0 96v64h64v-64h-64zm0 96v64h64v-64h-64z"/>
</svg>
